<svg xmlns="http://www.w3.org/2000/svg" viewBox="0 0 64 64" role="img" aria-label="$<l">
  <defs>
    <linearGradient id="yfBg" x1="8" y1="4" x2="58" y2="60" gradientUnits="userSpaceOnUse">
      <stop offset="0%" stop-color="#22d3ee"/>
      <stop offset="45%" stop-color="#0e7490"/>
      <stop offset="100%" stop-color="#083344"/>
    </linearGradient>
  </defs>
  <rect width="64" height="64" rx="16" fill="url(#yfBg)"/>
  <path d="M10 42c10-3 22-4 34-1" fill="none" stroke="rgba(255,255,255,.28)" stroke-width="2.4" stroke-linecap="round"/>
  <path d="M12 48c12-2.2 24-1.4 36 2" fill="none" stroke="rgba(255,255,255,.18)" stroke-width="2" stroke-linecap="round"/>
  <path d="M16 32c10-14 30-15 40-3-9 2-13 7-13 13-8-1-18 1-27-10z" fill="#fff"/>
  <circle cx="47" cy="26.5" r="2.2" fill="#083344"/>
  <path d="M16 32c-5 1-8.5 6-10 11 7-1 11-3.5 13-8z" fill="#ecfeff"/>
</svg>
